:SAMPLES-PER-SECOND 24
:FULLY-SPECIFIED
:DEGREES
496
root  -3.03317 39.9202 30.5054 -85.0245 57.2191 -84.186
RightUpLeg  -18.4452 -9.63156 -17.1984
RightLeg  -3.18494 -6.23534 -5.23256
RightFoot  -7.21523 -0.0990375 1.66373
RightToes  -2.08645e-008 3.77894e-005 6.81332e-007
Spine  2.67183 5.91709 -1.07036
Spine1  13.7619 0.377024 19.7746
HEad  -29.2395 -57.437 29.7357
LeftShoulder1  7.22036 -13.3428 -36.7922
LeftArm  12.9802 14.2417 -34.4457
LeftForeArm  54.5147 -75.1281 -38.4346
LeftHand  -0.955016 -1.69631 15.7682
RightShoulder  3.49715 5.93354 31.1649
RightArm  33.8087 5.56221 36.7095
RightForeArm  80.0191 79.5094 62.1601
RightHand  1.98904 11.9172 12.8055
LeftUpLeg  0.570882 4.54237 28.6225
LeftLeg  31.2122 22.0918 14.1495
LeftFoot  -18.2701 -0.677419 -12.8538
LeftToes  1.24767e-006 1.47042e-008 1.32732e-009
497
root  -2.45218 40.6473 30.6342 -69.3452 58.5349 -69.1565
RightUpLeg  -18.0301 -4.27825 -10.7796
RightLeg  6.73706 -11.233 -3.35895
RightFoot  -4.46787 0.0145 -0.681224
RightToes  -2.08645e-008 3.77894e-005 6.81332e-007
Spine  -1.46314 5.09038 -4.85724
Spine1  15.2701 -0.0156489 17.0593
HEad  -21.4256 -54.2458 23.1277
LeftShoulder1  6.86054 -12.8573 -35.8903
LeftArm  10.2757 12.1928 -33.3739
LeftForeArm  76.5045 -79.2008 -60.145
LeftHand  -0.8122 -1.14794 14.5464
RightShoulder  3.55879 6.14181 31.0021
RightArm  34.631 1.94949 33.658
RightForeArm  94.0469 80.4522 76.5645
RightHand  2.41127 12.9199 14.6648
LeftUpLeg  3.67141 8.60433 25.9343
LeftLeg  29.1706 22.0419 13.0987
LeftFoot  -12.3025 -0.0622845 -16.1389
LeftToes  1.24767e-006 1.47042e-008 1.32732e-009
498
root  -1.82246 41.429 30.8193 -56.8527 60.2074 -57.2089
RightUpLeg  -14.0211 -5.16575 -5.38563
RightLeg  12.4423 -13.4852 -3.46647
RightFoot  -2.45201 0.166157 -2.35001
RightToes  -2.08645e-008 3.77894e-005 6.81332e-007
Spine  -5.29582 2.07871 -10.7099
Spine1  17.8386 -2.94341 16.5055
HEad  -17.54 -47.7805 19.1819
LeftShoulder1  6.6302 -12.5541 -35.264
LeftArm  7.73143 10.9407 -30.5258
LeftForeArm  95.7592 -80.4812 -80.5081
LeftHand  -0.736824 -0.61647 14.3441
RightShoulder  3.57636 6.25888 30.7342
RightArm  33.5643 -2.20013 32.8305
RightForeArm  105.572 80.6208 90.0501
RightHand  2.40243 12.7886 14.7328
LeftUpLeg  4.49034 10.3139 21.6148
LeftLeg  28.6049 21.9874 12.7937
LeftFoot  -4.18683 1.30241 -20.2492
LeftToes  1.24767e-006 1.47042e-008 1.32732e-009
499
root  -1.03435 41.8981 31.0462 -43.4601 59.8877 -46.2992
RightUpLeg  -9.98261 -5.77532 -0.543743
RightLeg  9.87053 -6.5957 -0.011757
RightFoot  1.38954 -0.450684 3.82516
RightToes  -2.08645e-008 3.77894e-005 6.81332e-007
Spine  -10.2657 -1.10412 -13.5081
Spine1  18.8545 -5.11243 15.1342
HEad  -15.6125 -42.3894 15.6737
LeftShoulder1  6.70299 -12.6663 -35.4235
LeftArm  8.09597 8.07192 -28.0199
LeftForeArm  91.2831 -80.3029 -78.3725
LeftHand  -0.74245 -0.932207 13.76
RightShoulder  3.63563 6.22054 31.4983
RightArm  30.1291 -9.80452 28.3775
RightForeArm  132.157 79.1188 119.245
RightHand  2.14691 12.0057 13.7556
LeftUpLeg  4.50751 13.0898 18.2862
LeftLeg  26.164 20.3216 10.8454
LeftFoot  0.380603 2.28176 -22.0682
LeftToes  1.24767e-006 1.47042e-008 1.32732e-009
500
root  -0.212452 41.6401 31.2973 -26.9933 56.3826 -34.0488
RightUpLeg  -9.7616 -4.03766 3.50543
RightLeg  8.41188 3.98771 2.77986
RightFoot  5.06961 -2.55954 17.8988
RightToes  -2.08645e-008 3.77894e-005 6.81332e-007
Spine  -15.2805 -3.12074 -14.2829
Spine1  17.2467 -5.8873 13.5285
HEad  -16.9188 -37.361 13.051
LeftShoulder1  6.77076 -12.7083 -35.7304
LeftArm  9.52356 4.32763 -27.7235
LeftForeArm  85.4139 -80.0503 -72.5945
LeftHand  -0.762566 -1.56188 12.8942
RightShoulder  3.60911 6.13377 31.56
RightArm  27.7562 -17.6851 21.4756
RightForeArm  150.836 75.111 140.542
RightHand  2.15612 12.0796 13.7556
LeftUpLeg  3.01959 14.9283 13.7271
LeftLeg  24.7721 16.9119 8.66551
LeftFoot  -0.509002 2.01639 -20.9931
LeftToes  1.24767e-006 1.47042e-008 1.32732e-009
501
root  0.384354 40.9772 31.3399 -14.4048 52.4328 -25.2339
RightUpLeg  -10.447 -3.84034 6.75192
RightLeg  10.2265 9.85118 3.82215
RightFoot  4.32086 -2.43167 18.0124
RightToes  -2.08645e-008 3.77894e-005 6.81332e-007
Spine  -15.9663 -5.32841 -15.9522
Spine1  14.7714 -7.97233 15.1995
HEad  -22.8501 -30.1913 13.2254
LeftShoulder1  6.45299 -12.3192 -34.764
LeftArm  9.11281 -0.120027 -29.2842
LeftForeArm  90.2328 -80.2807 -75.5239
LeftHand  -0.707185 -1.86819 11.4883
RightShoulder  3.43961 6.06726 30.0268
RightArm  26.398 -22.1521 17.5437
RightForeArm  154.169 73.0011 146.073
RightHand  1.96138 12.2106 12.3842
LeftUpLeg  0.417928 14.6221 8.22133
LeftLeg  24.895 13.4666 7.06937
LeftFoot  -4.26116 1.26019 -19.7867
LeftToes  1.24767e-006 1.47042e-008 1.32732e-009
502
root  0.813931 40.1949 31.2238 -6.75647 48.8 -19.8173
RightUpLeg  -10.3801 -0.333521 8.15448
RightLeg  10.3676 5.50474 2.77654
RightFoot  -0.892833 -0.166287 1.75137
RightToes  -2.08645e-008 3.77894e-005 6.81332e-007
Spine  -11.7709 -6.83321 -17.4407
Spine1  11.8339 -10.2515 18.3623
HEad  -30.7133 -22.3514 14.4872
LeftShoulder1  6.12358 -12.0193 -33.4474
LeftArm  7.07008 -5.33284 -30.2112
LeftForeArm  99.2844 -80.5521 -84.3054
LeftHand  -0.641854 -1.88691 10.4234
RightShoulder  3.37932 6.08365 29.3226
RightArm  23.9036 -24.1872 17.2311
RightForeArm  152.015 73.3834 144.898
RightHand  2.03657 12.1197 12.9414
LeftUpLeg  -1.72676 18.2797 4.2371
LeftLeg  26.034 10.7347 5.99776
LeftFoot  -9.39252 0.386279 -19.2668
LeftToes  1.24767e-006 1.47042e-008 1.32732e-009
503
root  1.32142 39.4117 30.8676 -2.49731 43.2513 -16.7913
RightUpLeg  -13.158 5.30876 7.64645
RightLeg  13.2265 0.845236 0.197437
RightFoot  -6.3849 0.201095 -4.932
RightToes  -2.08645e-008 3.77894e-005 6.81332e-007
Spine  -5.36403 -5.87829 -15.3814
Spine1  7.80547 -9.93287 19.1966
HEad  -37.8769 -16.1068 14.3673
LeftShoulder1  6.26592 -12.289 -33.6696
LeftArm  4.88987 -10.6885 -29.6431
LeftForeArm  98.8011 -80.5006 -85.2158
LeftHand  -0.683731 -1.83983 11.1523
RightShoulder  3.65097 6.36126 31.1083
RightArm  20.3836 -25.3162 17.8672
RightForeArm  147.847 74.9608 140.347
RightHand  2.05413 12.4117 12.8364
LeftUpLeg  -6.39796 24.8648 1.72647
LeftLeg  33.7499 7.80297 5.93248
LeftFoot  -11.4297 0.0456313 -17.4662
LeftToes  1.24767e-006 1.47042e-008 1.32732e-009
504
root  2.01173 38.6748 30.3819 -0.927979 38.0746 -16.0474
RightUpLeg  -17.9094 9.31891 5.70538
RightLeg  20.5998 2.13257 0.733173
RightFoot  -10.2831 -0.0571971 -0.830005
RightToes  -2.08645e-008 3.77894e-005 6.81332e-007
Spine  0.96883 -4.58056 -11.0484
Spine1  4.16422 -8.6948 18.2286
HEad  -42.317 -11.6636 12.4777
LeftShoulder1  6.62497 -12.7076 -34.8467
LeftArm  3.87876 -15.0916 -29.4557
LeftForeArm  81.683 -79.8088 -69.4679
LeftHand  -0.795338 -2.19925 12.3507
RightShoulder  4.01314 6.77117 33.1731
RightArm  17.0014 -25.815 20.3661
RightForeArm  139.158 77.3802 130.342
RightHand  1.8329 12.4913 11.3573
LeftUpLeg  -14.7362 25.4745 1.51929
LeftLeg  49.3825 1.11735 1.46559
LeftFoot  -4.31372 1.16053 -17.9817
LeftToes  1.24767e-006 1.47042e-008 1.32732e-009
505
root  2.8328 38.0316 29.9513 -1.5011 35.5061 -16.936
RightUpLeg  -20.1671 9.29927 5.30453
RightLeg  26.4089 4.81376 2.3692
RightFoot  -13.1179 -0.101777 -0.553581
RightToes  -2.08645e-008 3.77894e-005 6.81332e-007
Spine  4.46954 -4.62228 -6.66817
Spine1  4.19653 -8.9923 18.6176
HEad  -42.2476 -8.81164 9.78882
LeftShoulder1  6.87048 -12.9367 -35.7536
LeftArm  4.84743 -16.2283 -31.1561
LeftForeArm  66.8104 -78.4407 -55.6973
LeftHand  -0.83581 -2.56319 12.4048
RightShoulder  4.14561 6.91752 33.8914
RightArm  14.6034 -25.7952 24.939
RightForeArm  128.535 79.269 117.202
RightHand  1.75954 12.3366 10.992
LeftUpLeg  -21.0657 19.4236 5.2809
LeftLeg  62.9602 -4.11972 -8.29811
LeftFoot  3.99057 2.89899 -21.4217
LeftToes  1.24767e-006 1.47042e-008 1.32732e-009
